# xmcd CD database file
#
# Track frame offsets:
#	182
#	18810
#	43282
#
# Disc length: 865 seconds
#
# Revision: 2
# Processed by: cddbd v1.5.2PL0 Copyright (c) Steve Scherf et al.
# Submitted via: CDex 1.51
#
DISCID=1c035f03
DTITLE=Spaceone - Flieger grüss mir die sonne
DYEAR=1995
DGENRE=Pop
TTITLE0=Flieger grüss mir die sonne - short mix
TTITLE1=Flieger grüss mir die sonne - long version
TTITLE2=Fly Fly - Master mix
EXTD=YEAR: 1995
EXTT0=
EXTT1=
EXTT2=
PLAYORDER=
